<svg id="svg" version="1.1" xmlns="http://www.w3.org/2000/svg" xmlns:xlink="http://www.w3.org/1999/xlink" width="400" height="400" viewBox="0, 0, 400,400"><g id="svgg"><path id="path0" d="M108.569 28.616 C 106.734 29.520,104.726 32.670,104.726 34.644 C 104.726 38.003,107.697 39.449,129.820 46.856 C 138.973 49.921,146.527 52.624,146.607 52.863 C 146.686 53.103,145.246 54.959,143.407 56.989 C 124.286 78.087,112.615 112.565,116.576 136.249 C 121.489 165.623,141.596 190.907,170.380 203.907 C 201.975 218.177,230.960 211.170,260.824 182.042 C 284.512 158.939,290.778 139.488,280.920 119.660 C 270.945 99.596,249.140 84.175,202.030 63.867 C 186.951 57.368,185.093 56.168,184.311 52.432 C 182.587 44.191,177.239 42.165,164.583 44.957 L 158.844 46.223 143.978 40.267 C 114.671 28.527,111.121 27.359,108.569 28.616 M181.254 65.578 C 196.406 71.478,218.564 82.385,232.136 90.624 C 278.131 118.546,282.027 144.800,245.012 177.392 C 218.198 201.002,191.137 203.009,161.849 183.562 C 139.288 168.582,128.058 146.275,129.620 119.548 C 130.118 111.030,130.468 110.378,133.100 113.063 C 139.858 119.957,151.027 115.823,151.027 106.427 C 151.027 98.984,144.835 94.432,137.750 96.665 C 134.939 97.551,134.944 97.486,138.193 91.430 C 145.249 78.275,152.925 69.216,158.916 66.975 C 161.921 65.851,175.195 63.370,176.371 63.714 C 176.578 63.774,178.776 64.613,181.254 65.578 M174.092 97.928 C 166.938 101.386,165.338 110.064,170.925 115.111 C 178.947 122.358,191.641 113.411,187.015 103.770 C 184.211 97.925,178.986 95.563,174.092 97.928 M192.582 130.567 C 191.263 131.701,191.220 134.704,192.448 139.729 C 195.061 150.411,193.181 159.500,187.789 162.251 C 184.539 163.908,173.913 162.859,173.913 160.880 C 173.913 159.549,180.366 156.143,184.237 155.431 C 188.429 154.660,189.934 152.996,189.934 149.130 C 189.934 142.586,183.951 141.027,177.694 145.941 C 175.317 147.808,172.296 149.417,167.297 151.480 C 160.050 154.470,159.398 155.113,159.667 159.002 C 160.373 169.198,173.549 174.817,188.990 171.507 C 200.748 168.986,205.249 155.662,200.882 136.298 C 199.538 130.335,195.829 127.775,192.582 130.567 M279.276 172.949 C 276.309 174.007,275.334 176.072,272.211 187.925 C 263.640 220.452,251.678 249.700,242.532 260.491 C 241.563 261.635,237.066 266.399,232.538 271.078 C 218.672 285.408,217.752 286.587,217.798 289.961 C 217.940 300.352,231.821 304.008,237.316 295.101 C 238.091 293.845,240.750 290.301,243.225 287.227 C 251.656 276.753,256.254 268.957,261.554 256.144 C 271.645 231.748,288.332 185.082,289.049 179.249 C 289.586 174.884,283.980 171.271,279.276 172.949 M180.151 221.586 C 172.696 224.807,172.098 228.567,174.461 257.349 C 174.970 263.548,175.907 275.255,176.544 283.365 C 178.911 313.539,179.680 321.150,182.081 338.170 C 184.544 355.633,187.406 371.811,191.197 389.698 L 193.381 400.000 197.635 400.000 C 200.789 400.000,201.890 399.878,201.888 399.527 C 201.887 399.267,201.202 395.907,200.368 392.060 C 192.002 353.514,189.396 329.312,189.405 290.237 C 189.410 264.279,189.932 256.659,192.688 242.344 C 194.647 232.170,194.659 230.718,192.822 226.985 C 190.108 221.473,185.228 219.393,180.151 221.586 M128.922 258.062 C 123.505 260.577,122.583 263.116,120.614 280.942 C 119.089 294.757,117.420 307.080,113.605 332.703 C 107.161 375.986,107.138 376.412,111.110 378.748 C 113.415 380.103,117.666 380.230,119.324 378.994 C 121.925 377.054,122.361 375.086,123.624 359.546 C 126.225 327.555,131.260 294.441,133.734 293.056 C 134.061 292.873,135.388 292.809,136.684 292.913 C 142.398 293.372,147.448 288.711,147.448 282.979 C 147.448 278.233,142.400 263.773,139.767 260.976 C 136.216 257.205,132.766 256.277,128.922 258.062 " stroke="none" fill="#070707" fill-rule="evenodd"></path><path id="path1" d="M0.000 200.000 L 0.000 400.000 96.597 400.000 C 177.319 400.000,193.195 399.916,193.195 399.491 C 193.195 399.211,192.340 395.015,191.296 390.167 C 185.287 362.278,180.388 330.247,178.286 305.104 C 177.964 301.257,177.180 291.474,176.544 283.365 C 175.907 275.255,174.970 263.548,174.461 257.349 C 172.092 228.498,172.692 224.774,180.225 221.572 C 185.298 219.416,190.114 221.486,192.822 226.985 C 194.659 230.718,194.647 232.170,192.688 242.344 C 189.932 256.659,189.410 264.279,189.405 290.237 C 189.396 330.481,191.956 353.283,201.377 396.881 L 202.051 400.000 301.025 400.000 L 400.000 400.000 400.000 200.000 L 400.000 0.000 200.000 0.000 L 0.000 0.000 0.000 200.000 M116.273 29.642 C 122.980 31.920,126.775 33.376,143.978 40.267 L 158.844 46.223 164.583 44.957 C 177.239 42.165,182.587 44.191,184.311 52.432 C 185.093 56.168,186.951 57.368,202.030 63.867 C 249.140 84.175,270.945 99.596,280.920 119.660 C 290.778 139.488,284.512 158.939,260.824 182.042 C 230.960 211.170,201.975 218.177,170.380 203.907 C 141.596 190.907,121.489 165.623,116.576 136.249 C 112.615 112.565,124.286 78.087,143.407 56.989 C 145.246 54.959,146.686 53.103,146.607 52.863 C 146.527 52.624,138.973 49.921,129.820 46.856 C 104.156 38.263,102.130 36.927,106.017 31.154 C 108.439 27.557,109.624 27.383,116.273 29.642 M171.610 64.269 C 157.973 66.342,155.304 67.619,149.015 75.081 C 144.158 80.844,134.694 96.257,135.512 97.074 C 135.636 97.198,136.643 97.014,137.750 96.665 C 144.835 94.432,151.027 98.984,151.027 106.427 C 151.027 115.823,139.858 119.957,133.100 113.063 C 130.468 110.378,130.118 111.030,129.620 119.548 C 128.058 146.275,139.288 168.582,161.849 183.562 C 191.137 203.009,218.198 201.002,245.012 177.392 C 282.027 144.800,278.131 118.546,232.136 90.624 C 217.417 81.689,185.975 66.516,176.371 63.714 C 176.163 63.653,174.020 63.903,171.610 64.269 M180.565 97.588 C 186.149 99.678,189.327 105.680,187.473 110.636 C 183.276 121.853,167.735 119.136,167.723 107.183 C 167.717 100.419,174.528 95.330,180.565 97.588 M197.532 130.217 C 202.274 132.198,204.091 154.789,200.158 162.860 C 196.741 169.871,192.005 172.068,180.151 172.143 C 167.513 172.223,160.260 167.570,159.667 159.002 C 159.398 155.113,160.050 154.470,167.297 151.480 C 172.296 149.417,175.317 147.808,177.694 145.941 C 183.951 141.027,189.934 142.586,189.934 149.130 C 189.934 152.996,188.429 154.660,184.237 155.431 C 180.366 156.143,173.913 159.549,173.913 160.880 C 173.913 162.859,184.539 163.908,187.789 162.251 C 193.181 159.500,195.061 150.411,192.448 139.729 C 190.420 131.436,192.251 128.011,197.532 130.217 M283.743 172.818 C 291.046 174.813,290.822 177.051,280.378 206.340 C 261.407 259.543,255.954 271.415,243.225 287.227 C 240.750 290.301,238.091 293.845,237.316 295.101 C 231.821 304.008,217.940 300.352,217.798 289.961 C 217.752 286.587,218.672 285.408,232.538 271.078 C 237.066 266.399,241.563 261.635,242.532 260.491 C 251.678 249.700,263.640 220.452,272.211 187.925 C 274.359 179.775,276.014 175.109,277.109 174.118 C 278.730 172.651,281.293 172.149,283.743 172.818 M135.988 258.046 C 140.527 260.308,142.370 263.731,146.549 277.666 C 149.177 286.428,144.572 293.546,136.684 292.913 C 135.388 292.809,134.061 292.873,133.734 293.056 C 131.260 294.441,126.225 327.555,123.624 359.546 C 122.361 375.086,121.925 377.054,119.324 378.994 C 117.666 380.230,113.415 380.103,111.110 378.748 C 107.138 376.412,107.161 375.986,113.605 332.703 C 117.420 307.080,119.089 294.757,120.614 280.942 C 122.583 263.116,123.505 260.577,128.922 258.062 C 131.571 256.832,133.543 256.828,135.988 258.046 " stroke="none" fill="#fbfbfb" fill-rule="evenodd"></path></g></svg>